<?xml version="1.0" encoding="UTF-8"?>
<svg width="83px" height="39px" viewBox="0 0 83 39" version="1.1" xmlns="http://www.w3.org/2000/svg" xmlns:xlink="http://www.w3.org/1999/xlink">
    <!-- Generator: Sketch 49.1 (51147) - http://www.bohemiancoding.com/sketch -->
    <title>Group 2</title>
    <desc>Created with Sketch.</desc>
    <defs>
        <polygon id="path-1" points="0 0.376150943 26.814564 0.376150943 26.814564 28 0 28"></polygon>
    </defs>
    <g id="Symbols" stroke="none" stroke-width="1" fill="none" fill-rule="evenodd">
        <g id="Footer-ChileAtiende" transform="translate(-70.000000, -171.000000)">
            <g id="Group-2" transform="translate(70.000000, 171.000000)">
                <g id="Group-9" transform="translate(0.000000, 31.000000)">
                    <polygon id="Fill-10" fill="#E53F40" points="41.1261261 7.55555556 82.2522523 7.55555556 82.2522523 0 41.1261261 0"></polygon>
                    <polygon id="Fill-11" fill="#006FB3" points="0 7.55555556 41.1261261 7.55555556 41.1261261 0 0 0"></polygon>
                </g>
                <g id="Page-1" transform="translate(3.000000, 0.000000)">
                    <path d="M21.9119409,20.0871665 C20.2091793,20.0871665 18.8238818,18.7219411 18.8238818,17.0433149 C18.8238818,15.3652254 20.2091793,14 21.9119409,14 C23.6147025,14 25,15.3652254 25,17.0433149 C25,18.7219411 23.6147025,20.0871665 21.9119409,20.0871665 M21.9119409,14.974011 C20.7499028,14.974011 19.802956,15.9029439 19.802956,17.0433149 C19.802956,18.1842226 20.7499028,19.1136921 21.9119409,19.1136921 C23.0750681,19.1136921 24.0214702,18.1842226 24.0214702,17.0433149 C24.0214702,15.9029439 23.0750681,14.974011 21.9119409,14.974011 M13.5734734,21 C12.1549592,21 11,19.8617755 11,18.4632781 C11,17.0653174 12.1549592,15.9276296 13.5734734,15.9276296 C14.9930766,15.9276296 16.1474912,17.0653174 16.1474912,18.4632781 C16.1474912,19.8617755 14.9930766,21 13.5734734,21 M13.5734734,16.8941276 C12.6907818,16.8941276 11.9725399,17.5982061 11.9725399,18.4632781 C11.9725399,19.3294235 12.6907818,20.033502 13.5734734,20.033502 C14.4567095,20.033502 15.1749514,19.3294235 15.1749514,18.4632781 C15.1749514,17.5982061 14.4567095,16.8941276 13.5734734,16.8941276" id="Fill-1" fill="#FEFEFE"></path>
                    <path d="M74.2783125,20.0746628 C74.2783125,19.2422388 74.0187317,18.5287324 73.0893347,18.5287324 C72.2011239,18.5287324 71.8320747,19.3080119 71.8320747,20.0746628 L74.2783125,20.0746628 Z M76,21.0923039 L71.8320747,21.0923039 C71.8320747,22.1230995 72.4336086,22.6913789 73.5543042,22.6913789 C74.2371264,22.6913789 74.9340386,22.4403888 75.5220244,22.1494087 L75.8634356,23.3654214 C75.3036297,23.6564015 74.3877808,24 73.3353675,24 C71.271727,24 70.042105,22.7576781 70.042105,20.616633 C70.042105,18.6208148 71.0392423,17.2595752 73.1847131,17.2595752 C75.2077094,17.2595752 76,18.7134232 76,20.3388075 L76,21.0923039 Z M66.9125031,22.1893988 L66.9125031,18.8718048 C66.6388323,18.7134232 66.2155909,18.5550417 65.6958873,18.5550417 C64.8488626,18.5550417 64.3156109,19.1101664 64.3156109,20.616633 C64.3156109,22.1630895 64.8212245,22.7445235 65.6687912,22.7445235 C66.1196706,22.7445235 66.5705501,22.5329973 66.9125031,22.1893988 Z M65.4092103,17.2595752 C66.1332187,17.2595752 66.7071145,17.4979368 67.0761637,17.8941538 C66.9666953,17.524246 66.9125031,17.1938021 66.9125031,16.7044504 L66.9125031,14.7486222 L68.6889248,14.7486222 L68.6889248,23.8674015 L67.2403662,23.8674015 L67.0355195,23.1538952 C66.7618487,23.5506383 66.1196706,24 65.2585559,24 C63.7417151,24 62.5256412,22.9423689 62.5256412,20.6297876 C62.5256412,18.4887424 63.7829012,17.2595752 65.4092103,17.2595752 Z M61.2819292,23.8674015 L61.2819292,19.8631366 C61.2819292,18.2245977 60.6121131,17.2595752 58.9175218,17.2595752 C57.9198426,17.2595752 57.1822862,17.6957822 56.799689,18.1319893 L56.5260182,17.3916475 L55.2963962,17.3916475 L55.2963962,23.8674015 L57.0863659,23.8674015 L57.0863659,18.9780941 C57.4006809,18.7797225 57.7968262,18.5813509 58.2617956,18.5813509 C59.0817243,18.5813509 59.4643215,19.0438672 59.4643215,20.0215182 L59.4643215,23.8674015 L61.2819292,23.8674015 Z M52.2350765,20.0746628 C52.2350765,19.2422388 51.9754957,18.5287324 51.0460987,18.5287324 C50.1578879,18.5287324 49.7888388,19.3080119 49.7888388,20.0746628 L52.2350765,20.0746628 Z M53.956764,21.0923039 L49.7888388,21.0923039 C49.7888388,22.1230995 50.3898307,22.6913789 51.5105263,22.6913789 C52.1938904,22.6913789 52.8908026,22.4403888 53.4787884,22.1494087 L53.8201996,23.3654214 C53.2598518,23.6564015 52.3440029,24 51.2921315,24 C49.228491,24 47.9983271,22.7576781 47.9983271,20.616633 C47.9983271,18.6208148 48.9960063,17.2595752 51.1414771,17.2595752 C53.1644735,17.2595752 53.956764,18.7134232 53.956764,20.3388075 L53.956764,21.0923039 Z M44.800443,16.321388 L46.6045027,16.321388 L46.6045027,14.7486222 L44.800443,14.7486222 L44.800443,16.321388 Z M46.6315988,23.8674015 L46.6315988,17.3916475 L44.0764346,17.3916475 L44.0764346,18.4755878 L44.8551771,18.6339694 L44.8551771,23.8674015 L46.6315988,23.8674015 Z M43.1605857,23.563793 L42.8874569,22.2951619 C42.613786,22.4272342 42.2311888,22.5329973 41.8621397,22.5329973 C41.3841641,22.5329973 41.1516794,22.2420172 41.1516794,21.7926556 L41.1516794,18.6208148 L42.9416491,18.6208148 L42.9416491,17.3916475 L41.1516794,17.3916475 L41.1516794,15.7131186 L39.3888058,16.2687696 L39.3888058,17.3916475 L38.3911266,17.3916475 L38.3911266,18.6208148 L39.3888058,18.6208148 L39.3888058,21.8326456 C39.3888058,23.4580299 40.1675483,24 41.356526,24 C42.0675282,24 42.7644405,23.7884738 43.1605857,23.563793 Z M34.1408291,16.466615 L33.5804814,16.466615 L32.5692541,20.4582514 L35.0837741,20.4582514 L34.1408291,16.466615 Z M32.2413911,21.8589548 L31.7493255,23.8674015 L30,23.8674015 L32.5009719,14.9469938 L35.4804613,14.9469938 L37.8990611,23.8674015 L35.8901547,23.8674015 L35.4116372,21.8589548 L32.2413911,21.8589548 Z M56.1656398,9.98244205 C56.1656398,9.20368883 55.9244843,8.53596056 55.0617438,8.53596056 C54.2369379,8.53596056 53.8944429,9.26577861 53.8944429,9.98244205 L56.1656398,9.98244205 Z M57.7643109,10.93431 L53.8944429,10.93431 C53.8944429,11.8988064 54.452623,12.430779 55.4931141,12.430779 C56.1271633,12.430779 56.7747606,12.1955745 57.3199345,11.9235371 L57.6369591,13.0611482 C57.1172555,13.3326594 56.2669793,13.6546844 55.2898931,13.6546844 C53.3741974,13.6546844 52.2323669,12.4923426 52.2323669,10.489684 C52.2323669,8.62278102 53.1585123,7.34888809 55.1506191,7.34888809 C57.0283802,7.34888809 57.7643109,8.7090753 57.7643109,10.2297488 L57.7643109,10.93431 Z M50.4814156,13.6546844 C50.9127858,13.6546844 51.3950968,13.5557617 51.3950968,13.5557617 L51.3950968,12.4181506 C50.7101069,12.4181506 50.3925403,12.3439586 50.3925403,11.8372428 L50.3925403,5 L48.7559346,5 L48.7559346,11.9235371 C48.7559346,12.9990584 49.2127752,13.6546844 50.4814156,13.6546844 Z M45.533664,6.47121216 L47.2082042,6.47121216 L47.2082042,5 L45.533664,5 L45.533664,6.47121216 Z M47.2336746,13.5305049 L47.2336746,7.47254147 L44.8611383,7.47254147 L44.8611383,8.48649921 L45.5840628,8.63488327 L45.5840628,13.5305049 L47.2336746,13.5305049 Z M39.8364337,13.5305049 L39.8364337,8.95638207 C40.1155237,8.75853665 40.5095013,8.58542192 40.9403296,8.58542192 C41.6892664,8.58542192 42.0442256,9.05530477 42.0442256,9.92087845 L42.0442256,13.5305049 L43.731772,13.5305049 L43.731772,9.78459664 C43.731772,8.25182088 43.2369968,7.34888809 41.4605751,7.34888809 C40.5853705,7.34888809 40.0141842,7.75720734 39.6716893,8.17762885 C39.7481003,7.99188568 39.8364337,7.65828464 39.8364337,7.23786314 L39.8364337,5 L38.1743576,5 L38.1743576,13.5305049 L39.8364337,13.5305049 Z M37.0579975,12.7643801 L36.5252877,11.4536542 C35.9416373,11.8740757 35.1043672,12.2203052 34.2665551,12.2203052 C32.8711049,12.2203052 32.1606447,11.2310781 32.1606447,9.30261154 C32.1606447,7.47254147 32.8711049,6.49594284 34.2920255,6.49594284 C35.1807782,6.49594284 35.9541015,6.74324961 36.3984779,7.07737683 L37.0325271,5.76665097 C36.335073,5.30887036 35.2821177,5.06208978 34.1148169,5.06208978 C31.6913398,5.06208978 30.4096933,6.71851893 30.4096933,9.31471378 C30.4096933,12.0966518 31.7038041,13.6546844 34.1148169,13.6546844 C35.2436412,13.6546844 36.2082631,13.3326594 37.0579975,12.7643801 Z" id="Fill-3" fill="#FEFEFE"></path>
                    <g id="Group-7">
                        <mask id="mask-2" fill="white">
                            <use xlink:href="#path-1"></use>
                        </mask>
                        <g id="Clip-6"></g>
                        <path d="M12.336084,0.376150943 L11.735604,0.376150943 L2.708424,0.376150943 C1.215324,0.376150943 -0.000216,1.56588679 -0.000216,3.02769811 L-0.000216,28 L11.735604,28 L12.336084,28 L26.814564,28 L26.814564,3.02769811 C26.814564,1.56588679 25.599564,0.376150943 24.105924,0.376150943 L12.336084,0.376150943 Z M10.674504,4.52173585 L16.527024,2.92256604 L17.023284,1.21139623 L20.970144,1.21139623 L21.851424,2.36784906 L25.907364,2.36784906 L25.907364,4.60943396 L24.320844,6.49811321 L25.907364,10.489434 L25.907364,11.5370566 L20.755764,9.97909434 L15.052284,13.4912453 L15.052284,8.15803774 L10.674504,4.52173585 Z M25.434324,6.67245283 L25.907364,6.10981132 L25.907364,7.88543396 L25.434324,6.67245283 Z M22.339584,1.41532075 L22.184064,1.21139623 L24.486624,1.21139623 C25.202124,1.21139623 25.344684,1.29539623 25.508304,1.41532075 L22.339584,1.41532075 Z M25.907364,27.1647547 L16.955784,27.1647547 L16.955784,25.0209057 C16.955784,23.7086038 18.047124,22.6398491 19.387404,22.6398491 L23.963904,22.6398491 C24.760404,22.6398491 25.464024,23.0228679 25.907364,23.6045283 L25.907364,27.1647547 Z M19.387404,21.6873208 C17.510364,21.6873208 15.983244,23.1824151 15.983244,25.0209057 L15.983244,27.1647547 L12.578004,27.1647547 L10.307844,27.1647547 L10.307844,25.1429434 C10.653984,24.2400755 11.537424,23.5923774 12.579084,23.5923774 L14.345424,23.5923774 C14.766084,23.5923774 15.182424,23.6990943 15.546384,23.9019623 L16.026984,23.0741132 C15.516684,22.7904151 14.935644,22.6398491 14.345424,22.6398491 L12.578004,22.6398491 L12.578004,21.2276981 C12.290724,21.1178113 12.024504,20.9672453 11.787444,20.7833962 C11.775024,22.7423396 11.798244,22.7708679 11.787444,22.7423396 L10.819224,23.1322264 C9.839664,23.7170566 9.174924,24.7662642 9.174924,25.973434 L9.174924,27.1647547 L0.906984,27.1647547 L0.906984,2.73871698 C0.906984,2.21411321 1.945944,1.21139623 2.482164,1.21139623 L11.809584,1.22566038 L11.809584,2.73871698 L12.578004,2.52739623 L12.578004,1.21139623 L16.012404,1.21139623 L15.740244,2.14913208 L8.647344,4.08641509 L14.079744,8.59864151 L14.079744,15.2161509 L20.896164,11.0172075 L25.907364,12.5344906 L25.907364,22.2911698 C25.355484,21.913434 24.687504,21.6873208 23.963904,21.6873208 L19.387404,21.6873208 Z" id="Fill-5" fill="#FEFEFE" mask="url(#mask-2)"></path>
                    </g>
                    <path d="M12.0216763,8 C12.0093931,14 12.0028902,17 12,17 C12.3020231,16.8244452 12.6380058,16.6805655 13,16.5742663 L13,8.68718683 L12.0216763,8 Z" id="Fill-8" fill="#FEFEFE"></path>
                </g>
            </g>
        </g>
    </g>
</svg>