<?xml version="1.0" encoding="UTF-8"?>
<svg width="110px" height="46px" viewBox="0 0 110 46" version="1.1" xmlns="http://www.w3.org/2000/svg" xmlns:xlink="http://www.w3.org/1999/xlink">
    <!-- Generator: Sketch 49.1 (51147) - http://www.bohemiancoding.com/sketch -->
    <title>Group</title>
    <desc>Created with Sketch.</desc>
    <defs>
        <polygon id="path-1" points="0 0.510490566 35.752752 0.510490566 35.752752 38 0 38"></polygon>
        <polygon id="path-3" points="0 31.3333333 89.1796875 31.3333333 110 31.3333333 110 0 0 0"></polygon>
    </defs>
    <g id="Symbols" stroke="none" stroke-width="1" fill="none" fill-rule="evenodd">
        <g id="web-header" transform="translate(-70.000000, 0.000000)">
            <g id="Group" transform="translate(70.000000, 0.000000)">
                <g id="Page-1" transform="translate(4.000000, 8.000000)">
                    <path d="M29.8090626,26.8263569 C27.4981719,26.8263569 25.6181252,25.0710672 25.6181252,22.9128335 C25.6181252,20.7552898 27.4981719,19 29.8090626,19 C32.1199533,19 34,20.7552898 34,22.9128335 C34,25.0710672 32.1199533,26.8263569 29.8090626,26.8263569 M29.8090626,20.2522999 C28.2320109,20.2522999 26.9468689,21.4466421 26.9468689,22.9128335 C26.9468689,24.3797148 28.2320109,25.574747 29.8090626,25.574747 C31.3875924,25.574747 32.6719953,24.3797148 32.6719953,22.9128335 C32.6719953,21.4466421 31.3875924,20.2522999 29.8090626,20.2522999 M18.492571,28 C16.5674446,28 15,26.5365685 15,24.7385005 C15,22.9411224 16.5674446,21.4783809 18.492571,21.4783809 C20.4191754,21.4783809 21.985881,22.9411224 21.985881,24.7385005 C21.985881,26.5365685 20.4191754,28 18.492571,28 M18.492571,22.7210212 C17.2946324,22.7210212 16.3198755,23.6262649 16.3198755,24.7385005 C16.3198755,25.8521159 17.2946324,26.7573597 18.492571,26.7573597 C19.6912485,26.7573597 20.6660054,25.8521159 20.6660054,24.7385005 C20.6660054,23.6262649 19.6912485,22.7210212 18.492571,22.7210212" id="Fill-1" fill="#8A8A8A"></path>
                    <path d="M99.7168927,27.628486 C99.7168927,26.4893794 99.3726659,25.5130023 98.1402048,25.5130023 C96.96236,25.5130023 96.4729687,26.5793846 96.4729687,27.628486 L99.7168927,27.628486 Z M102,29.0210474 L96.4729687,29.0210474 C96.4729687,30.4316098 97.2706549,31.2092553 98.7567946,31.2092553 C99.6622763,31.2092553 100.586443,30.8657952 101.366163,30.467612 L101.818904,32.1316292 C101.076552,32.5298125 99.8620572,33 98.4664656,33 C95.7298988,33 94.0993132,31.2999806 94.0993132,28.3701293 C94.0993132,25.6390097 95.4216039,23.7762608 98.2666847,23.7762608 C100.949354,23.7762608 102,25.7657371 102,27.9899471 L102,29.0210474 Z M89.9491889,30.5223352 L89.9491889,25.9824697 C89.5862776,25.7657371 89.0250227,25.5490044 88.3358505,25.5490044 C87.2126221,25.5490044 86.505484,26.3086488 86.505484,28.3701293 C86.505484,30.486333 87.1759716,31.2819796 88.2999187,31.2819796 C88.8978241,31.2819796 89.4957294,30.9925226 89.9491889,30.5223352 Z M87.955692,23.7762608 C88.91579,23.7762608 89.6768257,24.1024398 90.166217,24.6446315 C90.0210525,24.1384419 89.9491889,23.6862555 89.9491889,23.0166164 L89.9491889,20.3402199 L92.3048785,20.3402199 L92.3048785,32.8185494 L90.3839638,32.8185494 L90.1123193,31.8421723 C89.749408,32.3850841 88.8978241,33 87.7559111,33 C85.7444482,33 84.1318285,31.5527154 84.1318285,28.3881304 C84.1318285,25.4582791 85.7990646,23.7762608 87.955692,23.7762608 Z M82.4825583,32.8185494 L82.4825583,27.3390291 C82.4825583,25.096818 81.594324,23.7762608 79.3471484,23.7762608 C78.0241391,23.7762608 77.0460752,24.3731757 76.538718,24.9700906 L76.1758067,23.9569913 L74.5452211,23.9569913 L74.5452211,32.8185494 L76.9188766,32.8185494 L76.9188766,26.1279182 C77.3356856,25.8564624 77.8610087,25.5850065 78.4775986,25.5850065 C79.5648952,25.5850065 80.0722524,26.2179235 80.0722524,27.5557617 L80.0722524,32.8185494 L82.4825583,32.8185494 Z M70.4856449,27.628486 C70.4856449,26.4893794 70.1414182,25.5130023 68.908957,25.5130023 C67.7311122,25.5130023 67.241721,26.5793846 67.241721,27.628486 L70.4856449,27.628486 Z M72.7687523,29.0210474 L67.241721,29.0210474 C67.241721,30.4316098 68.0386885,31.2092553 69.5248283,31.2092553 C70.4310286,31.2092553 71.3551948,30.8657952 72.1349151,30.467612 L72.5876559,32.1316292 C71.8445861,32.5298125 70.6300908,33 69.2352179,33 C66.4986511,33 64.8673468,31.2999806 64.8673468,28.3701293 C64.8673468,25.6390097 66.1903561,23.7762608 69.035437,23.7762608 C71.7181061,23.7762608 72.7687523,25.7657371 72.7687523,27.9899471 L72.7687523,29.0210474 Z M60.6266744,22.4924257 L63.0190144,22.4924257 L63.0190144,20.3402199 L60.6266744,20.3402199 L60.6266744,22.4924257 Z M63.0549462,32.8185494 L63.0549462,23.9569913 L59.6665763,23.9569913 L59.6665763,25.440278 L60.6992566,25.6570107 L60.6992566,32.8185494 L63.0549462,32.8185494 Z M58.4520811,32.4030851 L58.0898884,30.6670636 C57.7269771,30.8477942 57.2196199,30.9925226 56.7302287,30.9925226 C56.0963915,30.9925226 55.7880966,30.5943394 55.7880966,29.9794234 L55.7880966,25.6390097 L58.1617521,25.6390097 L58.1617521,23.9569913 L55.7880966,23.9569913 L55.7880966,21.660057 L53.4503729,22.4204215 L53.4503729,23.9569913 L52.1273635,23.9569913 L52.1273635,25.6390097 L53.4503729,25.6390097 L53.4503729,30.0341466 C53.4503729,32.2583566 54.4830531,33 56.0597411,33 C57.0025918,33 57.926758,32.7105431 58.4520811,32.4030851 Z M46.4910995,22.6911573 L45.7480296,22.6911573 L44.4070544,28.1533967 L47.7415266,28.1533967 L46.4910995,22.6911573 Z M43.9722795,30.0701487 L43.3197578,32.8185494 L41,32.8185494 L44.3165062,20.6116758 L48.2675683,20.6116758 L51.4748418,32.8185494 L48.8108573,32.8185494 L48.1763015,30.0701487 L43.9722795,30.0701487 Z M75.6979136,13.8180786 C75.6979136,12.7524163 75.3781205,11.8386829 74.2340516,11.8386829 C73.1402872,11.8386829 72.6861091,12.8373813 72.6861091,13.8180786 L75.6979136,13.8180786 Z M77.8178905,15.1206347 L72.6861091,15.1206347 C72.6861091,16.4404719 73.4263044,17.1684345 74.806086,17.1684345 C75.6468904,17.1684345 76.5056607,16.8465756 77.2286088,16.4743139 L77.649011,18.0310449 C76.9598388,18.4025866 75.8322986,18.8432524 74.5365974,18.8432524 C71.9962183,18.8432524 70.4820518,17.2526794 70.4820518,14.5121992 C70.4820518,11.9574898 71.7102011,10.2142679 74.3519079,10.2142679 C76.8419825,10.2142679 77.8178905,12.0755767 77.8178905,14.1564984 L77.8178905,15.1206347 Z M68.1601381,18.8432524 C68.7321725,18.8432524 69.3717588,18.7078845 69.3717588,18.7078845 L69.3717588,17.1511535 C68.4634026,17.1511535 68.0422817,17.0496275 68.0422817,16.356227 L68.0422817,7 L65.8720003,7 L65.8720003,16.4743139 C65.8720003,17.9460799 66.4778106,18.8432524 68.1601381,18.8432524 Z M61.5989892,9.0132377 L63.8195752,9.0132377 L63.8195752,7 L61.5989892,7 L61.5989892,9.0132377 Z M63.8533511,18.6733224 L63.8533511,10.3834778 L60.7071616,10.3834778 L60.7071616,11.7709989 L61.6658224,11.9740508 L61.6658224,18.6733224 L63.8533511,18.6733224 Z M54.0439664,18.6733224 L54.0439664,12.4139965 C54.4140641,12.1432607 54.9365126,11.9063668 55.5078284,11.9063668 C56.5009837,11.9063668 56.9716904,12.5493644 56.9716904,13.7338337 L56.9716904,18.6733224 L59.2095237,18.6733224 L59.2095237,13.5473428 C59.2095237,11.4498601 58.5534088,10.2142679 56.1977192,10.2142679 C55.0371217,10.2142679 54.2796791,10.7730206 53.825501,11.3483342 C53.9268287,11.0941594 54.0439664,10.6376527 54.0439664,10.062339 L54.0439664,7 L51.8399091,7 L51.8399091,18.6733224 L54.0439664,18.6733224 Z M50.3595184,17.6249412 L49.653099,15.8313163 C48.8791277,16.4066299 47.7688347,16.8804176 46.6578231,16.8804176 C44.8073348,16.8804176 43.8652027,15.5267385 43.8652027,12.8877842 C43.8652027,10.3834778 44.8073348,9.04707968 46.691599,9.04707968 C47.8701625,9.04707968 48.8956564,9.38549946 49.4849381,9.84272619 L50.3257425,8.04910133 C49.4008577,7.42266471 48.0045474,7.08496497 46.456605,7.08496497 C43.2428637,7.08496497 41.543289,9.35165748 41.543289,12.9043452 C41.543289,16.7112077 43.2593923,18.8432524 46.456605,18.8432524 C47.9535243,18.8432524 49.2326968,18.4025866 50.3595184,17.6249412 Z" id="Fill-3" fill="#8A8A8A"></path>
                    <g id="Group-7">
                        <mask id="mask-2" fill="white">
                            <use xlink:href="#path-1"></use>
                        </mask>
                        <g id="Clip-6"></g>
                        <path d="M16.448112,0.510490566 L15.647472,0.510490566 L3.611232,0.510490566 C1.620432,0.510490566 -0.000288,2.12513208 -0.000288,4.10901887 L-0.000288,38 L15.647472,38 L16.448112,38 L35.752752,38 L35.752752,4.10901887 C35.752752,2.12513208 34.132752,0.510490566 32.141232,0.510490566 L16.448112,0.510490566 Z M14.232672,6.13664151 L22.036032,3.96633962 L22.697712,1.64403774 L27.960192,1.64403774 L29.135232,3.21350943 L34.543152,3.21350943 L34.543152,6.25566038 L32.427792,8.81886792 L34.543152,14.2356604 L34.543152,15.657434 L27.674352,13.5430566 L20.069712,18.3095472 L20.069712,11.0716226 L14.232672,6.13664151 Z M33.912432,9.0554717 L34.543152,8.29188679 L34.543152,10.7016604 L33.912432,9.0554717 Z M29.786112,1.92079245 L29.578752,1.64403774 L32.648832,1.64403774 C33.602832,1.64403774 33.792912,1.75803774 34.011072,1.92079245 L29.786112,1.92079245 Z M34.543152,36.8664528 L22.607712,36.8664528 L22.607712,33.9569434 C22.607712,32.1759623 24.062832,30.7255094 25.849872,30.7255094 L31.951872,30.7255094 C33.013872,30.7255094 33.952032,31.2453208 34.543152,32.034717 L34.543152,36.8664528 Z M25.849872,29.4327925 C23.347152,29.4327925 21.310992,31.4618491 21.310992,33.9569434 L21.310992,36.8664528 L16.770672,36.8664528 L13.743792,36.8664528 L13.743792,34.122566 C14.205312,32.8972453 15.383232,32.0182264 16.772112,32.0182264 L19.127232,32.0182264 C19.688112,32.0182264 20.243232,32.1630566 20.728512,32.4383774 L21.369312,31.3148679 C20.688912,30.9298491 19.914192,30.7255094 19.127232,30.7255094 L16.770672,30.7255094 L16.770672,28.8090189 C16.387632,28.6598868 16.032672,28.4555472 15.716592,28.2060377 C15.700032,30.8646038 15.730992,30.9033208 15.716592,30.8646038 L14.425632,31.3937358 C13.119552,32.187434 12.233232,33.6113585 12.233232,35.2496604 L12.233232,36.8664528 L1.209312,36.8664528 L1.209312,3.71683019 C1.209312,3.00486792 2.594592,1.64403774 3.309552,1.64403774 L15.746112,1.66339623 L15.746112,3.71683019 L16.770672,3.43003774 L16.770672,1.64403774 L21.349872,1.64403774 L20.986992,2.91667925 L11.529792,5.54584906 L18.772992,11.6695849 L18.772992,20.6504906 L27.861552,14.9519245 L34.543152,17.0110943 L34.543152,30.2523019 C33.807312,29.7396604 32.916672,29.4327925 31.951872,29.4327925 L25.849872,29.4327925 Z" id="Fill-5" fill="#8A8A8A" mask="url(#mask-2)"></path>
                    </g>
                    <path d="M16.0216763,10 C16.0093931,18 16.0028902,22 16,22 C16.3020231,21.765927 16.6380058,21.5740873 17,21.432355 L17,10.9162491 L16.0216763,10 Z" id="Fill-8" fill="#8A8A8A"></path>
                </g>
                <g id="Page-1">
                    <mask id="mask-4" fill="white">
                        <use xlink:href="#path-3"></use>
                    </mask>
                    <g id="Clip-2"></g>
                    <polygon id="Fill-10" fill="#E53F40" mask="url(#mask-4)" points="54.6666667 6 109.333333 6 109.333333 0 54.6666667 0"></polygon>
                    <polygon id="Fill-11" fill="#006FB3" mask="url(#mask-4)" points="0 6 54.6666667 6 54.6666667 0 0 0"></polygon>
                </g>
            </g>
        </g>
    </g>
</svg>